# Blender v2.90.0 OBJ File: 'cor_selecao_finalizado.blend'
# www.blender.org
mtllib cor_selecao_3.mtl
o Plane.003_Plane.004
v -0.378151 1.522666 0.100000
v -0.100000 1.430422 1.350000
v -1.350000 1.430422 0.100000
v -0.100000 1.526309 0.100000
v -0.378151 1.430422 1.318660
v -0.642355 1.430422 1.226211
v -0.879362 1.430422 1.077289
v -1.077289 1.430422 0.879362
v -1.226211 1.430422 0.642355
v -1.318660 1.430422 0.378151
v -0.642354 1.512078 0.100000
v -0.879363 1.495613 0.100000
v -1.077289 1.475221 0.100000
v -1.226211 1.454093 0.100000
v -0.178888 0.000000 0.099876
v -0.100003 0.000000 0.454384
v -0.454510 0.000000 0.099876
v -0.100003 0.000000 0.099876
v -0.178888 0.000000 0.445496
v -0.253818 0.000000 0.419277
v -0.321035 0.000000 0.377042
v -0.377168 0.000000 0.320908
v -0.419403 0.000000 0.253691
v -0.445622 0.000000 0.178762
v -0.253818 0.000000 0.099876
v -0.321035 0.000000 0.099876
v -0.377168 0.000000 0.099876
v -0.419403 0.000000 0.099876
v -0.378151 1.504148 0.709330
v -0.100000 1.507167 0.725000
v -1.334330 1.432163 0.239076
v -0.642354 1.495402 0.663106
v -0.879362 1.481897 0.588645
v -1.077289 1.465381 0.489681
v -1.226211 1.448605 0.371177
v -0.178888 0.000000 0.272686
v -0.100003 0.000000 0.277130
v -0.450066 0.000000 0.139319
v -0.253818 0.000000 0.259577
v -0.321035 0.000000 0.238459
v -0.377168 0.000000 0.210392
v -0.419403 0.000000 0.176784
vt 0.500000 0.750000
vt 0.611260 0.743732
vt 0.611260 0.987464
vt 0.500000 1.000000
vt 0.611260 0.500000
vt 0.716942 0.500000
vt 0.716942 0.725242
vt 0.811745 0.500000
vt 0.811745 0.695458
vt 0.890916 0.500000
vt 0.890916 0.655872
vt 0.950484 0.500000
vt 0.950484 0.608471
vt 1.000000 0.500000
vt 0.993732 0.555630
vt 0.500000 0.750000
vt 0.500000 1.000000
vt 0.611260 0.987464
vt 0.611260 0.743732
vt 0.716942 0.725242
vt 0.716942 0.500000
vt 0.611260 0.500000
vt 0.811745 0.695458
vt 0.811745 0.500000
vt 0.890916 0.655872
vt 0.890916 0.500000
vt 0.950484 0.608471
vt 0.950484 0.500000
vt 0.993732 0.555630
vt 1.000000 0.500000
vt 0.987464 0.611260
vt 0.987464 0.611260
vt 0.500000 0.500000
vt 0.500000 0.500000
vt 0.950484 0.716942
vt 0.950484 0.716942
vt 0.890916 0.811745
vt 0.890916 0.811745
vt 0.811745 0.890916
vt 0.811745 0.890916
vt 0.716942 0.950485
vt 0.716942 0.950485
vn -0.0143 0.9969 0.0774
vn -0.0289 0.9967 0.0764
vn -0.0290 0.9924 0.1195
vn -0.0156 0.9925 0.1210
vn -0.0260 0.9992 0.0302
vn -0.0534 0.9981 0.0294
vn -0.0589 0.9956 0.0730
vn -0.0835 0.9961 0.0278
vn -0.0908 0.9936 0.0670
vn -0.1173 0.9928 0.0248
vn -0.1253 0.9905 0.0574
vn -0.1572 0.9874 0.0194
vn -0.1631 0.9857 0.0427
vn -0.1792 0.9837 0.0158
vn -0.1810 0.9832 0.0231
vn 0.0000 -1.0000 0.0000
vn -0.0574 -0.8587 0.5092
vn -0.1135 -0.8602 0.4972
vn -0.4828 -0.8740 0.0544
vn -0.5090 -0.8586 0.0605
vn -0.0000 0.0001 -1.0000
vn -0.8440 -0.5279 0.0951
vn -0.4976 -0.8602 0.1120
vn -0.8270 -0.5306 0.1858
vn 1.0000 -0.0000 -0.0000
vn -0.1886 -0.5307 0.8263
vn -0.0951 -0.5283 0.8437
vn -0.4595 -0.8602 0.2213
vn -0.7637 -0.5307 0.3678
vn -0.3988 -0.8602 0.3180
vn -0.6627 -0.5307 0.5285
vn -0.3180 -0.8602 0.3988
vn -0.5285 -0.5307 0.6627
vn -0.2213 -0.8602 0.4595
vn -0.3677 -0.5307 0.7636
vn -0.8434 -0.5279 0.1002
vn -0.1546 0.9850 0.0764
vn -0.1887 0.9805 0.0548
vn -0.1212 0.9882 0.0938
vn -0.0892 0.9903 0.1064
vn -0.0586 0.9917 0.1147
vn -0.0128 0.9995 0.0305
usemtl Material.001
s 1
f 30/1/1 29/2/2 5/3/3 2/4/4
f 29/2/2 1/5/5 11/6/6 32/7/7
f 32/7/7 11/6/6 12/8/8 33/9/9
f 33/9/9 12/8/8 13/10/10 34/11/11
f 34/11/11 13/10/10 14/12/12 35/13/13
f 35/13/13 14/12/12 3/14/14 31/15/15
f 37/16/16 16/17/17 19/18/18 36/19/16
f 36/19/16 39/20/16 25/21/16 15/22/16
f 39/20/16 40/23/16 26/24/16 25/21/16
f 40/23/16 41/25/16 27/26/16 26/24/16
f 41/25/16 42/27/16 28/28/16 27/26/16
f 42/27/16 38/29/19 17/30/20 28/28/16
f 14/12/21 28/28/21 17/30/21 3/14/21
f 31/15/22 38/29/19 24/31/23 10/32/24
f 30/1/25 37/16/25 18/33/25 4/34/25
f 11/6/21 25/21/21 26/24/21 12/8/21
f 4/34/21 18/33/21 15/22/21 1/5/21
f 5/3/26 19/18/18 16/17/17 2/4/27
f 10/32/24 24/31/23 23/35/28 9/36/29
f 12/8/21 26/24/21 27/26/21 13/10/21
f 9/36/29 23/35/28 22/37/30 8/38/31
f 8/38/31 22/37/30 21/39/32 7/40/33
f 13/10/21 27/26/21 28/28/21 14/12/21
f 7/40/33 21/39/32 20/41/34 6/42/35
f 6/42/35 20/41/34 19/18/18 5/3/26
f 1/5/21 15/22/21 25/21/21 11/6/21
f 2/4/25 16/17/25 37/16/25 30/1/25
f 3/14/36 17/30/20 38/29/19 31/15/22
f 23/35/28 24/31/23 38/29/19 42/27/16
f 22/37/30 23/35/28 42/27/16 41/25/16
f 21/39/32 22/37/30 41/25/16 40/23/16
f 20/41/34 21/39/32 40/23/16 39/20/16
f 19/18/18 20/41/34 39/20/16 36/19/16
f 18/33/16 37/16/16 36/19/16 15/22/16
f 9/36/37 35/13/13 31/15/15 10/32/38
f 8/38/39 34/11/11 35/13/13 9/36/37
f 7/40/40 33/9/9 34/11/11 8/38/39
f 6/42/41 32/7/7 33/9/9 7/40/40
f 5/3/3 29/2/2 32/7/7 6/42/41
f 4/34/42 1/5/5 29/2/2 30/1/1
