# Blender v2.90.1 OBJ File: 'carta.blend'
# www.blender.org
mtllib carta.mtl
o Plano
v 0.700000 0.102458 0.000000
v 0.597542 0.000000 0.000000
v 0.686273 0.051229 0.000000
v 0.648771 0.013727 0.000000
v 0.597542 2.000000 0.000000
v 0.700000 1.897542 0.000000
v 0.648771 1.986273 0.000000
v 0.686273 1.948771 0.000000
v 0.700000 0.102458 -0.020000
v 0.597542 0.000000 -0.020000
v 0.686273 0.051229 -0.020000
v 0.648771 0.013727 -0.020000
v 0.597542 2.000000 -0.020000
v 0.700000 1.897542 -0.020000
v 0.648771 1.986273 -0.020000
v 0.686273 1.948771 -0.020000
v 0.000000 0.000000 0.000000
v 0.000000 2.000000 0.000000
v -0.700000 0.102458 0.000000
v -0.597542 0.000000 0.000000
v -0.686273 0.051229 0.000000
v -0.648771 0.013727 0.000000
v -0.597542 2.000000 0.000000
v -0.700000 1.897542 0.000000
v -0.648771 1.986273 0.000000
v -0.686273 1.948771 0.000000
v 0.000000 0.000000 -0.020000
v 0.000000 2.000000 -0.020000
v -0.700000 0.102458 -0.020000
v -0.597542 0.000000 -0.020000
v -0.686273 0.051229 -0.020000
v -0.648771 0.013727 -0.020000
v -0.597542 2.000000 -0.020000
v -0.700000 1.897542 -0.020000
v -0.648771 1.986273 -0.020000
v -0.686273 1.948771 -0.020000
vt 0.500887 0.000271
vt 0.916614 0.000447
vt 0.915675 1.004937
vt 0.499949 1.004760
vt 0.952249 0.006488
vt 0.951322 0.998926
vt 0.978323 0.022962
vt 0.977431 0.982475
vt 0.999906 0.044515
vt 0.999906 0.929695
vt 0.926815 1.000000
vt 0.926815 1.000000
vt 0.500000 1.000000
vt 0.500000 1.000000
vt 0.963408 0.993137
vt 0.963408 0.993137
vt 1.000000 0.948771
vt 1.000000 0.948771
vt 0.990195 0.974385
vt 0.990195 0.974385
vt 1.000000 0.051229
vt 1.000000 0.051229
vt 0.990195 0.025615
vt 0.990195 0.025615
vt 0.963408 0.006863
vt 0.963408 0.006863
vt 0.926815 0.000000
vt 0.926815 0.000000
vt 0.500000 0.000000
vt 0.500000 0.000000
vt 0.084223 1.004583
vt 0.085162 0.000094
vt 0.048588 0.998542
vt 0.049515 0.006104
vt 0.022514 0.982069
vt 0.023406 0.022555
vt 0.000120 0.959469
vt 0.000094 0.075191
vt 0.926815 1.000000
vt 0.926815 1.000000
vt 0.963408 0.993137
vt 0.963408 0.993137
vt 1.000000 0.948771
vt 0.990195 0.974385
vt 0.990195 0.974385
vt 1.000000 0.948771
vt 1.000000 0.051229
vt 1.000000 0.051229
vt 0.990195 0.025615
vt 0.990195 0.025615
vt 0.963408 0.006863
vt 0.963408 0.006863
vt 0.926815 0.000000
vt 0.926815 0.000000
vt 0.500887 0.000271
vt 0.499949 1.000080
vt 0.915675 1.000257
vt 0.916614 0.000447
vt 0.951322 0.994246
vt 0.952249 0.006104
vt 0.977431 0.977795
vt 0.978323 0.022555
vt 0.999906 0.925015
vt 0.999906 0.075191
vt 0.085162 0.000094
vt 0.084223 0.999903
vt 0.049515 0.006104
vt 0.048588 0.994246
vt 0.023406 0.022555
vt 0.022514 0.977795
vt 0.000094 0.075191
vt 0.000120 0.925015
vn 0.0000 0.0000 1.0000
vn 0.0000 1.0000 0.0000
vn 0.2588 0.9659 0.0000
vn 0.9659 0.2588 0.0000
vn 0.7071 0.7071 0.0000
vn 1.0000 0.0000 0.0000
vn 0.9659 -0.2588 0.0000
vn 0.7071 -0.7071 0.0000
vn 0.2588 -0.9659 0.0000
vn 0.0000 -1.0000 0.0000
vn -0.2588 0.9659 0.0000
vn -0.9659 0.2588 0.0000
vn -0.7071 0.7071 0.0000
vn -1.0000 0.0000 0.0000
vn -0.9659 -0.2588 0.0000
vn -0.7071 -0.7071 0.0000
vn -0.2588 -0.9659 0.0000
vn 0.0000 0.0000 -1.0000
usemtl Frente
s off
f 17/1/1 2/2/1 5/3/1 18/4/1
f 5/3/1 2/2/1 4/5/1 7/6/1
f 7/6/1 4/5/1 3/7/1 8/8/1
f 8/8/1 3/7/1 1/9/1 6/10/1
f 5/11/2 13/12/2 28/13/2 18/14/2
f 7/15/3 15/16/3 13/12/3 5/11/3
f 6/17/4 14/18/4 16/19/4 8/20/4
f 8/20/5 16/19/5 15/16/5 7/15/5
f 1/21/6 9/22/6 14/18/6 6/17/6
f 3/23/7 11/24/7 9/22/7 1/21/7
f 4/25/8 12/26/8 11/24/8 3/23/8
f 2/27/9 10/28/9 12/26/9 4/25/9
f 17/29/10 27/30/10 10/28/10 2/27/10
f 17/1/1 18/4/1 23/31/1 20/32/1
f 23/31/1 25/33/1 22/34/1 20/32/1
f 25/33/1 26/35/1 21/36/1 22/34/1
f 26/35/1 24/37/1 19/38/1 21/36/1
f 23/39/2 18/14/2 28/13/2 33/40/2
f 25/41/11 23/39/11 33/40/11 35/42/11
f 24/43/12 26/44/12 36/45/12 34/46/12
f 26/44/13 25/41/13 35/42/13 36/45/13
f 19/47/14 24/43/14 34/46/14 29/48/14
f 21/49/15 19/47/15 29/48/15 31/50/15
f 22/51/16 21/49/16 31/50/16 32/52/16
f 20/53/17 22/51/17 32/52/17 30/54/17
f 17/29/10 20/53/10 30/54/10 27/30/10
usemtl Trás
f 27/55/18 28/56/18 13/57/18 10/58/18
f 13/57/18 15/59/18 12/60/18 10/58/18
f 15/59/18 16/61/18 11/62/18 12/60/18
f 16/61/18 14/63/18 9/64/18 11/62/18
f 27/55/18 30/65/18 33/66/18 28/56/18
f 33/66/18 30/65/18 32/67/18 35/68/18
f 35/68/18 32/67/18 31/69/18 36/70/18
f 36/70/18 31/69/18 29/71/18 34/72/18
